<svg id="svg" version="1.1" xmlns="http://www.w3.org/2000/svg" xmlns:xlink="http://www.w3.org/1999/xlink" width="400" height="450" viewBox="0, 0, 400,450"><g id="svgg"><path id="path0" d="M172.058 150.381 C 168.202 151.328,162.403 154.236,158.891 156.983 C 152.605 161.902,119.987 203.893,100.418 232.260 C 99.455 233.657,98.328 234.404,93.336 236.957 C 81.010 243.262,78.031 246.800,80.200 252.562 C 81.639 256.385,81.558 256.792,78.660 260.314 C 71.352 269.194,67.575 275.055,63.041 284.549 L 60.009 290.898 60.657 292.263 C 63.346 297.931,75.875 301.188,82.436 297.925 C 89.069 294.626,97.702 284.136,107.120 267.934 C 113.021 257.782,114.166 256.130,115.465 255.899 C 116.089 255.788,122.450 254.519,129.600 253.080 C 145.628 249.853,159.891 247.358,160.251 247.718 C 160.400 247.866,160.226 250.916,159.866 254.494 C 158.549 267.563,158.307 271.131,158.285 277.800 C 158.228 294.492,161.487 299.683,172.400 300.286 C 183.108 300.877,188.993 293.915,188.028 281.800 C 185.876 254.787,187.044 225.928,191.996 183.800 C 195.109 157.313,195.158 156.157,193.270 153.602 C 190.668 150.081,179.924 148.450,172.058 150.381 M317.258 150.357 C 313.364 151.345,307.571 154.261,304.091 156.983 C 297.844 161.871,263.747 205.704,246.359 231.200 C 244.627 233.739,244.441 233.875,238.468 237.000 C 225.961 243.543,223.311 246.648,225.340 252.382 C 226.809 256.534,226.762 256.788,223.860 260.314 C 216.557 269.189,212.793 275.042,208.150 284.749 L 205.209 290.898 205.857 292.263 C 208.529 297.894,221.069 301.200,227.523 297.976 C 234.384 294.547,242.632 284.552,252.312 267.934 C 258.247 257.746,259.368 256.130,260.665 255.899 C 261.289 255.788,267.650 254.519,274.800 253.080 C 290.712 249.877,305.091 247.357,305.444 247.711 C 305.589 247.856,305.319 251.985,304.844 256.887 C 301.463 291.803,303.722 299.488,317.600 300.279 C 328.299 300.888,334.194 293.917,333.227 281.800 C 331.060 254.671,332.214 226.162,337.193 183.800 C 340.567 155.099,340.562 154.620,336.835 152.111 C 333.337 149.757,323.202 148.848,317.258 150.357 M166.235 182.700 C 165.380 185.436,163.251 204.509,162.237 218.521 C 161.937 222.657,161.618 226.115,161.527 226.206 C 161.436 226.297,155.341 227.278,147.981 228.387 C 140.622 229.495,133.924 230.515,133.099 230.654 L 131.597 230.905 139.124 219.753 C 155.307 195.773,167.250 179.451,166.235 182.700 M311.435 182.700 C 310.580 185.436,308.451 204.509,307.437 218.521 C 307.137 222.657,306.818 226.115,306.727 226.206 C 306.636 226.297,300.541 227.278,293.181 228.387 C 285.822 229.495,279.124 230.515,278.299 230.654 L 276.797 230.905 284.324 219.753 C 300.507 195.773,312.450 179.451,311.435 182.700 " stroke="none" fill="#fbfbfb" fill-rule="evenodd"></path><path id="path1" d="M192.600 9.783 C 146.498 18.186,29.055 88.339,12.928 117.108 C -4.222 147.702,-4.568 300.023,12.441 332.000 C 29.880 364.785,165.226 442.374,202.000 440.668 C 241.563 438.832,372.491 362.067,387.717 331.779 C 404.468 298.459,404.193 148.732,387.324 117.600 C 371.705 88.774,253.242 17.850,207.248 9.788 C 203.225 9.083,196.453 9.080,192.600 9.783 M207.260 22.812 C 249.665 31.454,364.301 100.497,376.596 124.800 C 390.423 152.131,390.423 297.869,376.596 325.200 C 362.948 352.176,232.694 428.000,200.000 428.000 C 167.247 428.000,36.828 351.980,23.295 325.000 C 9.310 297.120,9.633 151.931,23.741 124.114 C 37.087 97.800,167.273 22.286,199.737 22.028 C 201.829 22.012,204.903 22.332,207.260 22.812 M192.600 27.377 C 149.373 36.463,37.976 103.962,26.999 127.719 C 13.610 156.698,13.885 295.729,27.385 323.000 C 40.077 348.639,162.080 420.411,198.155 423.460 C 228.169 425.997,360.470 349.402,373.030 322.217 C 386.157 293.806,386.136 156.148,373.001 127.719 C 360.823 101.362,232.061 26.110,199.680 26.426 C 198.206 26.441,195.020 26.868,192.600 27.377 M187.800 150.203 C 194.873 152.067,195.644 154.654,193.812 170.400 C 188.774 213.719,187.758 225.866,187.339 247.800 C 187.102 260.272,187.534 274.141,188.434 282.934 C 189.781 296.090,177.857 304.573,165.622 299.163 C 157.910 295.753,156.415 284.703,159.594 254.600 C 159.989 250.860,160.284 247.768,160.251 247.728 C 159.953 247.378,117.256 255.542,115.105 256.360 C 114.083 256.748,112.581 259.046,105.797 270.600 C 95.976 287.327,86.727 297.538,79.863 299.235 C 72.620 301.025,60.000 295.794,60.000 291.001 C 60.000 287.337,70.567 269.747,78.716 259.847 L 81.311 256.693 80.034 252.918 C 77.803 246.324,81.011 242.636,94.834 235.901 C 99.023 233.860,99.091 233.804,101.234 230.649 C 114.710 210.811,149.681 165.338,156.594 158.665 C 160.646 154.753,167.422 151.065,172.423 150.050 C 173.620 149.807,174.960 149.524,175.400 149.422 C 176.991 149.052,185.456 149.585,187.800 150.203 M333.000 150.203 C 340.074 152.067,340.844 154.655,339.011 170.400 C 332.191 228.982,330.901 255.993,333.637 282.934 C 334.982 296.174,323.208 304.500,310.731 299.132 C 303.012 295.811,301.536 283.940,304.971 252.800 C 305.274 250.050,305.492 247.768,305.456 247.728 C 305.136 247.382,262.459 255.541,260.305 256.360 C 259.284 256.748,257.794 259.028,250.996 270.600 C 241.208 287.263,231.895 297.546,225.063 299.235 C 217.838 301.021,205.200 295.817,205.200 291.056 C 205.200 287.341,215.708 269.819,223.916 259.847 L 226.511 256.693 225.234 252.918 C 223.004 246.327,226.213 242.635,240.016 235.909 L 244.233 233.855 249.616 226.069 C 260.495 210.337,270.185 197.535,289.167 173.812 C 303.750 155.587,308.055 151.992,317.623 150.050 C 318.820 149.807,320.160 149.524,320.600 149.422 C 322.191 149.052,330.656 149.585,333.000 150.203 M161.511 188.281 C 156.292 195.164,148.907 205.679,139.371 219.806 L 132.008 230.713 133.523 230.373 C 134.356 230.186,140.609 229.214,147.419 228.214 C 154.229 227.214,160.180 226.309,160.645 226.204 C 161.419 226.029,161.513 225.649,161.764 221.706 C 162.540 209.528,164.282 192.318,165.376 186.026 C 165.666 184.362,165.856 182.946,165.799 182.881 C 165.742 182.815,163.812 185.245,161.511 188.281 M306.711 188.281 C 301.492 195.164,294.107 205.679,284.571 219.806 L 277.208 230.713 278.723 230.373 C 279.556 230.186,285.809 229.214,292.619 228.214 C 299.429 227.214,305.380 226.309,305.845 226.204 C 306.619 226.029,306.713 225.649,306.964 221.706 C 307.749 209.388,309.459 192.537,310.569 186.177 C 310.874 184.430,311.073 182.946,311.010 182.881 C 310.947 182.815,309.012 185.245,306.711 188.281 " stroke="none" fill="#c463a3" fill-rule="evenodd"></path><path id="path2" d="M179.700 149.476 C 180.085 149.576,180.715 149.576,181.100 149.476 C 181.485 149.375,181.170 149.293,180.400 149.293 C 179.630 149.293,179.315 149.375,179.700 149.476 M324.900 149.476 C 325.285 149.576,325.915 149.576,326.300 149.476 C 326.685 149.375,326.370 149.293,325.600 149.293 C 324.830 149.293,324.515 149.375,324.900 149.476 M187.293 239.200 C 187.293 239.970,187.375 240.285,187.476 239.900 C 187.576 239.515,187.576 238.885,187.476 238.500 C 187.375 238.115,187.293 238.430,187.293 239.200 " stroke="none" fill="#d89cc4" fill-rule="evenodd"></path><path id="path3" d="M332.893 228.400 C 332.893 229.170,332.975 229.485,333.076 229.100 C 333.176 228.715,333.176 228.085,333.076 227.700 C 332.975 227.315,332.893 227.630,332.893 228.400 M187.309 236.400 C 187.309 237.390,187.387 237.795,187.482 237.300 C 187.578 236.805,187.578 235.995,187.482 235.500 C 187.387 235.005,187.309 235.410,187.309 236.400 M332.509 236.400 C 332.509 237.390,332.587 237.795,332.682 237.300 C 332.778 236.805,332.778 235.995,332.682 235.500 C 332.587 235.005,332.509 235.410,332.509 236.400 M186.953 254.600 C 186.953 257.240,187.018 258.268,187.097 256.884 C 187.175 255.501,187.174 253.341,187.095 252.084 C 187.016 250.828,186.952 251.960,186.953 254.600 M332.151 254.400 C 332.151 256.930,332.216 257.965,332.296 256.700 C 332.375 255.435,332.375 253.365,332.296 252.100 C 332.216 250.835,332.151 251.870,332.151 254.400 M332.501 271.000 C 332.505 271.880,332.587 272.193,332.683 271.695 C 332.779 271.198,332.775 270.478,332.675 270.095 C 332.575 269.713,332.496 270.120,332.501 271.000 M187.293 271.200 C 187.293 271.970,187.375 272.285,187.476 271.900 C 187.576 271.515,187.576 270.885,187.476 270.500 C 187.375 270.115,187.293 270.430,187.293 271.200 M158.101 274.200 C 158.105 275.080,158.187 275.393,158.283 274.895 C 158.379 274.398,158.375 273.678,158.275 273.295 C 158.175 272.913,158.096 273.320,158.101 274.200 M303.301 274.200 C 303.305 275.080,303.387 275.393,303.483 274.895 C 303.579 274.398,303.575 273.678,303.475 273.295 C 303.375 272.913,303.296 273.320,303.301 274.200 M158.093 282.000 C 158.093 282.770,158.175 283.085,158.276 282.700 C 158.376 282.315,158.376 281.685,158.276 281.300 C 158.175 280.915,158.093 281.230,158.093 282.000 M303.293 282.000 C 303.293 282.770,303.375 283.085,303.476 282.700 C 303.576 282.315,303.576 281.685,303.476 281.300 C 303.375 280.915,303.293 281.230,303.293 282.000 M90.400 291.400 C 89.428 292.390,88.723 293.200,88.833 293.200 C 88.943 293.200,89.828 292.390,90.800 291.400 C 91.772 290.410,92.477 289.600,92.367 289.600 C 92.257 289.600,91.372 290.410,90.400 291.400 M235.600 291.400 C 234.628 292.390,233.923 293.200,234.033 293.200 C 234.143 293.200,235.028 292.390,236.000 291.400 C 236.972 290.410,237.677 289.600,237.567 289.600 C 237.457 289.600,236.572 290.410,235.600 291.400 M75.300 299.487 C 75.905 299.578,76.895 299.578,77.500 299.487 C 78.105 299.395,77.610 299.320,76.400 299.320 C 75.190 299.320,74.695 299.395,75.300 299.487 M220.500 299.487 C 221.105 299.578,222.095 299.578,222.700 299.487 C 223.305 299.395,222.810 299.320,221.600 299.320 C 220.390 299.320,219.895 299.395,220.500 299.487 " stroke="none" fill="#e4b6d4" fill-rule="evenodd"></path><path id="path4" d="M332.493 241.200 C 332.493 241.970,332.575 242.285,332.676 241.900 C 332.776 241.515,332.776 240.885,332.676 240.500 C 332.575 240.115,332.493 240.430,332.493 241.200 " stroke="none" fill="#cc7db2" fill-rule="evenodd"></path></g></svg>